<svg width="16" height="16" viewBox="0 0 16 16" fill="none" xmlns="http://www.w3.org/2000/svg">
<path fill-rule="evenodd" clip-rule="evenodd" d="M11.3588 5.70189C11.6517 5.40899 11.6517 4.93412 11.3588 4.64123C11.0659 4.34833 10.591 4.34833 10.2981 4.64123L8.35355 6.58577C8.15829 6.78103 7.84171 6.78103 7.64645 6.58577L5.7019 4.64123C5.40901 4.34833 4.93414 4.34833 4.64124 4.64123C4.34835 4.93412 4.34835 5.40899 4.64124 5.70189L6.58579 7.64643C6.78105 7.84169 6.78105 8.15828 6.58579 8.35354L4.64124 10.2981C4.34835 10.591 4.34835 11.0658 4.64124 11.3587C4.93414 11.6516 5.40901 11.6516 5.7019 11.3587L7.64645 9.4142C7.84171 9.21894 8.15829 9.21894 8.35355 9.4142L10.2981 11.3587C10.591 11.6516 11.0659 11.6516 11.3588 11.3587C11.6517 11.0658 11.6517 10.591 11.3588 10.2981L9.41421 8.35354C9.21895 8.15828 9.21895 7.84169 9.41421 7.64643L11.3588 5.70189Z" fill="#0D1625"/>
</svg>
